# xmcd
#
# Track frame offsets:
#	150
#	16128
#	28419
#	45550
#	59186
#	73346
#	87078
#	102719
#	119381
#	130382
#	142357
#	153304
#	168749
#	187033
#	202798
#	218195
#	235881
#	246458
#	262588
#	279631
#	291784
#
# Disc length: 4084 seconds
#
# Revision: 1
# Processed by: cddbd v1.5.2PL0 Copyright (c) Steve Scherf et al.
# Submitted via: audiograbber 1.83.01
#
DISCID=500ff215
DTITLE=Nicolette Larson - Say When... and Rose of My Heart 
DYEAR=2012
DGENRE=Country
TTITLE0=When You Get a Little Lonely
TTITLE1=Say When
TTITLE2=Building Bridges
TTITLE3=Only Love Will Make It Right
TTITLE4=I Just Keep Falling In Love
TTITLE5=Break Away
TTITLE6=Blow On Chilly Wind
TTITLE7=Dancin' 'Round and 'Round
TTITLE8=You Were the One
TTITLE9=You Can't Say (You Don't Love Me Anymore)
TTITLE10=I Won't Give Up
TTITLE11=That's How You Know When Love's Right
TTITLE12=If Only For One Night
TTITLE13=If I Didn't Love You	
TTITLE14=As an Eagle Stirreth Her Nest
TTITLE15=Let Me Be the First
TTITLE16=Captured By Love
TTITLE17=Rose of My Heart
TTITLE18=That's More About Love (Than I Wanted To Know)
TTITLE19=You're Running Wild
TTITLE20=One Bright Star (This Christmas Night)	
EXTD=
EXTT0=
EXTT1=
EXTT2=
EXTT3=
EXTT4=
EXTT5=
EXTT6=
EXTT7=
EXTT8=
EXTT9=
EXTT10=
EXTT11=
EXTT12=
EXTT13=
EXTT14=
EXTT15=
EXTT16=
EXTT17=
EXTT18=
EXTT19=
EXTT20=
PLAYORDER=
